<svg xmlns="http://www.w3.org/2000/svg" viewBox="0 0 64 64" fill="none">
  <defs>
    <linearGradient id="g" x1="32" y1="6" x2="32" y2="62" gradientUnits="userSpaceOnUse">
      <stop stop-color="#A7F0DD"/>
      <stop offset="0.4" stop-color="#9CAC54"/>
      <stop offset="1" stop-color="#345C32"/>
    </linearGradient>
    <radialGradient id="gi" cx="32" cy="38" r="14" gradientUnits="userSpaceOnUse">
      <stop stop-color="#A7F0DD"/>
      <stop offset="0.5" stop-color="#9CAC54"/>
      <stop offset="1" stop-color="#97CD97"/>
    </radialGradient>
    <mask id="m" maskUnits="userSpaceOnUse">
      <rect width="64" height="64" fill="#fff"/>
      <ellipse cx="32" cy="14" rx="16" ry="11" fill="#000"/>
    </mask>
  </defs>
  <ellipse cx="32" cy="40" rx="22" ry="26" fill="url(#g)" mask="url(#m)" opacity="0.95"/>
  <circle cx="32" cy="42" r="9" fill="url(#gi)" opacity="0.95"/>
  <circle cx="32" cy="42" r="3.2" fill="#345C32" opacity="0.45"/>
  <path d="M32 18c-6 0-10 4-10 9 0 3 1.5 5 3 6.5" stroke="#A7F0DD" stroke-width="1.8" stroke-linecap="round" opacity="0.85" fill="none"/>
  <path d="M32 18c6 0 10 4 10 9 0 3-1.5 5-3 6.5" stroke="#A7F0DD" stroke-width="1.8" stroke-linecap="round" opacity="0.85" fill="none"/>
  <path d="M32 6c2-2 6-3 9-1-2 4-6 5-9 3z" fill="#9CAC54" opacity="0.95"/>
</svg>
